<mxfile host="www.draw.io" modified="2020-01-30T15:53:18.599Z" agent="Mozilla/5.0 (Windows NT 10.0; Win64; x64; rv:72.0) Gecko/20100101 Firefox/72.0" etag="EvkgsGfl7gLJAbzUTVyH" version="12.6.2" type="github">
  <diagram id="tBlCzFdwfYQs3EUylRkV" name="Page-1">
    <mxGraphModel dx="943" dy="600" grid="1" gridSize="10" guides="1" tooltips="1" connect="1" arrows="1" fold="1" page="1" pageScale="1" pageWidth="827" pageHeight="1169" math="0" shadow="0">
      <root>
        <mxCell id="0"/>
        <mxCell id="1" parent="0"/>
        <mxCell id="oxYaIQUSxSvhRcsw_TUC-8" value="" style="group" vertex="1" connectable="0" parent="1">
          <mxGeometry x="10" y="10" width="240" height="136" as="geometry"/>
        </mxCell>
        <mxCell id="oxYaIQUSxSvhRcsw_TUC-1" value="Singleton" style="swimlane;fontStyle=1;align=center;verticalAlign=top;childLayout=stackLayout;horizontal=1;startSize=26;horizontalStack=0;resizeParent=1;resizeParentMax=0;resizeLast=0;collapsible=1;marginBottom=0;" vertex="1" parent="oxYaIQUSxSvhRcsw_TUC-8">
          <mxGeometry x="10" y="70" width="160" height="60" as="geometry"/>
        </mxCell>
        <mxCell id="oxYaIQUSxSvhRcsw_TUC-3" value="" style="line;strokeWidth=1;fillColor=none;align=left;verticalAlign=middle;spacingTop=-1;spacingLeft=3;spacingRight=3;rotatable=0;labelPosition=right;points=[];portConstraint=eastwest;" vertex="1" parent="oxYaIQUSxSvhRcsw_TUC-1">
          <mxGeometry y="26" width="160" height="8" as="geometry"/>
        </mxCell>
        <mxCell id="oxYaIQUSxSvhRcsw_TUC-4" value="+ Instance(): Singleton" style="text;strokeColor=none;fillColor=none;align=left;verticalAlign=top;spacingLeft=4;spacingRight=4;overflow=hidden;rotatable=0;points=[[0,0.5],[1,0.5]];portConstraint=eastwest;" vertex="1" parent="oxYaIQUSxSvhRcsw_TUC-1">
          <mxGeometry y="34" width="160" height="26" as="geometry"/>
        </mxCell>
        <mxCell id="oxYaIQUSxSvhRcsw_TUC-5" style="edgeStyle=orthogonalEdgeStyle;rounded=0;orthogonalLoop=1;jettySize=auto;html=1;exitX=0.5;exitY=0;exitDx=0;exitDy=0;" edge="1" parent="oxYaIQUSxSvhRcsw_TUC-1" source="oxYaIQUSxSvhRcsw_TUC-1" target="oxYaIQUSxSvhRcsw_TUC-4">
          <mxGeometry relative="1" as="geometry">
            <Array as="points">
              <mxPoint x="80" y="-30"/>
              <mxPoint x="200" y="-30"/>
              <mxPoint x="200" y="47"/>
            </Array>
          </mxGeometry>
        </mxCell>
        <mxCell id="oxYaIQUSxSvhRcsw_TUC-6" value="-instance" style="text;align=center;fontStyle=5;verticalAlign=middle;spacingLeft=3;spacingRight=3;strokeColor=none;rotatable=0;points=[[0,0.5],[1,0.5]];portConstraint=eastwest;fontSize=10;" vertex="1" parent="oxYaIQUSxSvhRcsw_TUC-8">
          <mxGeometry x="160" y="110" width="80" height="26" as="geometry"/>
        </mxCell>
        <mxCell id="oxYaIQUSxSvhRcsw_TUC-7" value="Singleton Pattern&#xa;确保某一个类只有一个实例，而且自行实例化并向整个系统提供这个实例。" style="text;align=left;fontStyle=1;verticalAlign=middle;spacingLeft=3;spacingRight=3;strokeColor=none;rotatable=0;points=[[0,0.5],[1,0.5]];portConstraint=eastwest;fontSize=10;" vertex="1" parent="oxYaIQUSxSvhRcsw_TUC-8">
          <mxGeometry width="80" height="26" as="geometry"/>
        </mxCell>
        <mxCell id="oxYaIQUSxSvhRcsw_TUC-20" style="edgeStyle=orthogonalEdgeStyle;rounded=0;orthogonalLoop=1;jettySize=auto;html=1;entryX=0.502;entryY=0.968;entryDx=0;entryDy=0;entryPerimeter=0;fontSize=10;endArrow=block;endFill=0;" edge="1" parent="1" source="oxYaIQUSxSvhRcsw_TUC-16" target="oxYaIQUSxSvhRcsw_TUC-12">
          <mxGeometry relative="1" as="geometry"/>
        </mxCell>
        <mxCell id="oxYaIQUSxSvhRcsw_TUC-25" style="edgeStyle=orthogonalEdgeStyle;rounded=0;orthogonalLoop=1;jettySize=auto;html=1;exitX=1;exitY=0.5;exitDx=0;exitDy=0;entryX=0;entryY=0.5;entryDx=0;entryDy=0;endArrow=classic;endFill=1;fontSize=10;dashed=1;" edge="1" parent="1" source="oxYaIQUSxSvhRcsw_TUC-16" target="oxYaIQUSxSvhRcsw_TUC-23">
          <mxGeometry relative="1" as="geometry"/>
        </mxCell>
        <mxCell id="oxYaIQUSxSvhRcsw_TUC-16" value="ConcreteCreator" style="swimlane;fontStyle=1;align=center;verticalAlign=top;childLayout=stackLayout;horizontal=1;startSize=26;horizontalStack=0;resizeParent=1;resizeParentMax=0;resizeLast=0;collapsible=1;marginBottom=0;strokeColor=#000000;fontSize=10;" vertex="1" parent="1">
          <mxGeometry x="20" y="320" width="160" height="34" as="geometry"/>
        </mxCell>
        <mxCell id="oxYaIQUSxSvhRcsw_TUC-18" value="" style="line;strokeWidth=1;fillColor=none;align=left;verticalAlign=middle;spacingTop=-1;spacingLeft=3;spacingRight=3;rotatable=0;labelPosition=right;points=[];portConstraint=eastwest;" vertex="1" parent="oxYaIQUSxSvhRcsw_TUC-16">
          <mxGeometry y="26" width="160" height="8" as="geometry"/>
        </mxCell>
        <mxCell id="oxYaIQUSxSvhRcsw_TUC-21" value="Product" style="swimlane;fontStyle=1;align=center;verticalAlign=top;childLayout=stackLayout;horizontal=1;startSize=26;horizontalStack=0;resizeParent=1;resizeParentMax=0;resizeLast=0;collapsible=1;marginBottom=0;strokeColor=#000000;fontSize=10;" vertex="1" parent="1">
          <mxGeometry x="210" y="230" width="160" height="34" as="geometry"/>
        </mxCell>
        <mxCell id="oxYaIQUSxSvhRcsw_TUC-22" value="" style="line;strokeWidth=1;fillColor=none;align=left;verticalAlign=middle;spacingTop=-1;spacingLeft=3;spacingRight=3;rotatable=0;labelPosition=right;points=[];portConstraint=eastwest;" vertex="1" parent="oxYaIQUSxSvhRcsw_TUC-21">
          <mxGeometry y="26" width="160" height="8" as="geometry"/>
        </mxCell>
        <mxCell id="oxYaIQUSxSvhRcsw_TUC-26" style="edgeStyle=orthogonalEdgeStyle;rounded=0;orthogonalLoop=1;jettySize=auto;html=1;entryX=0.5;entryY=1;entryDx=0;entryDy=0;endArrow=block;endFill=0;fontSize=10;" edge="1" parent="1" source="oxYaIQUSxSvhRcsw_TUC-23" target="oxYaIQUSxSvhRcsw_TUC-21">
          <mxGeometry relative="1" as="geometry"/>
        </mxCell>
        <mxCell id="oxYaIQUSxSvhRcsw_TUC-23" value="ConcreteProduct" style="swimlane;fontStyle=1;align=center;verticalAlign=top;childLayout=stackLayout;horizontal=1;startSize=26;horizontalStack=0;resizeParent=1;resizeParentMax=0;resizeLast=0;collapsible=1;marginBottom=0;strokeColor=#000000;fontSize=10;" vertex="1" parent="1">
          <mxGeometry x="210" y="320" width="160" height="34" as="geometry"/>
        </mxCell>
        <mxCell id="oxYaIQUSxSvhRcsw_TUC-24" value="" style="line;strokeWidth=1;fillColor=none;align=left;verticalAlign=middle;spacingTop=-1;spacingLeft=3;spacingRight=3;rotatable=0;labelPosition=right;points=[];portConstraint=eastwest;" vertex="1" parent="oxYaIQUSxSvhRcsw_TUC-23">
          <mxGeometry y="26" width="160" height="8" as="geometry"/>
        </mxCell>
        <mxCell id="oxYaIQUSxSvhRcsw_TUC-10" value="Creator" style="swimlane;fontStyle=1;align=center;verticalAlign=top;childLayout=stackLayout;horizontal=1;startSize=26;horizontalStack=0;resizeParent=1;resizeParentMax=0;resizeLast=0;collapsible=1;marginBottom=0;" vertex="1" parent="1">
          <mxGeometry x="20" y="230" width="160" height="60" as="geometry">
            <mxRectangle x="10" y="70" width="80" height="26" as="alternateBounds"/>
          </mxGeometry>
        </mxCell>
        <mxCell id="oxYaIQUSxSvhRcsw_TUC-11" value="" style="line;strokeWidth=1;fillColor=none;align=left;verticalAlign=middle;spacingTop=-1;spacingLeft=3;spacingRight=3;rotatable=0;labelPosition=right;points=[];portConstraint=eastwest;" vertex="1" parent="oxYaIQUSxSvhRcsw_TUC-10">
          <mxGeometry y="26" width="160" height="8" as="geometry"/>
        </mxCell>
        <mxCell id="oxYaIQUSxSvhRcsw_TUC-12" value="+ FactoryMethod():" style="text;strokeColor=none;fillColor=none;align=left;verticalAlign=top;spacingLeft=4;spacingRight=4;overflow=hidden;rotatable=0;points=[[0,0.5],[1,0.5]];portConstraint=eastwest;" vertex="1" parent="oxYaIQUSxSvhRcsw_TUC-10">
          <mxGeometry y="34" width="160" height="26" as="geometry"/>
        </mxCell>
        <mxCell id="oxYaIQUSxSvhRcsw_TUC-15" value="Factory Pattern&#xa;用来创建目标对象的类，将相似对象的创建工作统一到一个类来完成。" style="text;align=left;fontStyle=1;verticalAlign=middle;spacingLeft=3;spacingRight=3;strokeColor=none;rotatable=0;points=[[0,0.5],[1,0.5]];portConstraint=eastwest;fontSize=10;" vertex="1" parent="1">
          <mxGeometry x="10" y="190" width="80" height="26" as="geometry"/>
        </mxCell>
        <mxCell id="oxYaIQUSxSvhRcsw_TUC-31" value="Builder Pattern&#xa;将一个复杂对象的构造与它的表示分离，使同样的构建过程可以创建不同的表示，这样的设计模式被称为建造者模式。" style="text;align=left;fontStyle=1;verticalAlign=middle;spacingLeft=3;spacingRight=3;strokeColor=none;rotatable=0;points=[[0,0.5],[1,0.5]];portConstraint=eastwest;fontSize=10;" vertex="1" parent="1">
          <mxGeometry x="20" y="760" width="80" height="26" as="geometry"/>
        </mxCell>
        <mxCell id="oxYaIQUSxSvhRcsw_TUC-68" style="edgeStyle=orthogonalEdgeStyle;rounded=0;orthogonalLoop=1;jettySize=auto;html=1;entryX=0.5;entryY=0;entryDx=0;entryDy=0;endArrow=classic;endFill=1;fontSize=10;" edge="1" parent="1" source="oxYaIQUSxSvhRcsw_TUC-34" target="oxYaIQUSxSvhRcsw_TUC-38">
          <mxGeometry relative="1" as="geometry"/>
        </mxCell>
        <mxCell id="oxYaIQUSxSvhRcsw_TUC-71" style="edgeStyle=orthogonalEdgeStyle;rounded=0;orthogonalLoop=1;jettySize=auto;html=1;endArrow=classic;endFill=1;fontSize=10;" edge="1" parent="1" source="oxYaIQUSxSvhRcsw_TUC-34" target="oxYaIQUSxSvhRcsw_TUC-46">
          <mxGeometry relative="1" as="geometry">
            <mxPoint x="410" y="450" as="targetPoint"/>
          </mxGeometry>
        </mxCell>
        <mxCell id="oxYaIQUSxSvhRcsw_TUC-76" style="edgeStyle=orthogonalEdgeStyle;rounded=0;orthogonalLoop=1;jettySize=auto;html=1;endArrow=classic;endFill=1;fontSize=10;" edge="1" parent="1" source="oxYaIQUSxSvhRcsw_TUC-34" target="oxYaIQUSxSvhRcsw_TUC-55">
          <mxGeometry relative="1" as="geometry">
            <Array as="points">
              <mxPoint x="410" y="467"/>
              <mxPoint x="410" y="617"/>
            </Array>
          </mxGeometry>
        </mxCell>
        <mxCell id="oxYaIQUSxSvhRcsw_TUC-34" value="Client" style="swimlane;fontStyle=1;align=center;verticalAlign=top;childLayout=stackLayout;horizontal=1;startSize=26;horizontalStack=0;resizeParent=1;resizeParentMax=0;resizeLast=0;collapsible=1;marginBottom=0;strokeColor=#000000;fontSize=10;" vertex="1" parent="1">
          <mxGeometry x="20" y="450" width="160" height="34" as="geometry"/>
        </mxCell>
        <mxCell id="oxYaIQUSxSvhRcsw_TUC-36" value="" style="line;strokeWidth=1;fillColor=none;align=left;verticalAlign=middle;spacingTop=-1;spacingLeft=3;spacingRight=3;rotatable=0;labelPosition=right;points=[];portConstraint=eastwest;" vertex="1" parent="oxYaIQUSxSvhRcsw_TUC-34">
          <mxGeometry y="26" width="160" height="8" as="geometry"/>
        </mxCell>
        <mxCell id="oxYaIQUSxSvhRcsw_TUC-38" value="AbstractFactory" style="swimlane;fontStyle=1;align=center;verticalAlign=top;childLayout=stackLayout;horizontal=1;startSize=26;horizontalStack=0;resizeParent=1;resizeParentMax=0;resizeLast=0;collapsible=1;marginBottom=0;strokeColor=#000000;fontSize=10;" vertex="1" parent="1">
          <mxGeometry x="20" y="548" width="160" height="86" as="geometry"/>
        </mxCell>
        <mxCell id="oxYaIQUSxSvhRcsw_TUC-40" value="" style="line;strokeWidth=1;fillColor=none;align=left;verticalAlign=middle;spacingTop=-1;spacingLeft=3;spacingRight=3;rotatable=0;labelPosition=right;points=[];portConstraint=eastwest;" vertex="1" parent="oxYaIQUSxSvhRcsw_TUC-38">
          <mxGeometry y="26" width="160" height="8" as="geometry"/>
        </mxCell>
        <mxCell id="oxYaIQUSxSvhRcsw_TUC-43" value="+ CreateProductA()" style="text;strokeColor=none;fillColor=none;align=left;verticalAlign=top;spacingLeft=4;spacingRight=4;overflow=hidden;rotatable=0;points=[[0,0.5],[1,0.5]];portConstraint=eastwest;" vertex="1" parent="oxYaIQUSxSvhRcsw_TUC-38">
          <mxGeometry y="34" width="160" height="26" as="geometry"/>
        </mxCell>
        <mxCell id="oxYaIQUSxSvhRcsw_TUC-41" value="+ CreateProductB()" style="text;strokeColor=none;fillColor=none;align=left;verticalAlign=top;spacingLeft=4;spacingRight=4;overflow=hidden;rotatable=0;points=[[0,0.5],[1,0.5]];portConstraint=eastwest;" vertex="1" parent="oxYaIQUSxSvhRcsw_TUC-38">
          <mxGeometry y="60" width="160" height="26" as="geometry"/>
        </mxCell>
        <mxCell id="oxYaIQUSxSvhRcsw_TUC-72" style="edgeStyle=orthogonalEdgeStyle;rounded=0;orthogonalLoop=1;jettySize=auto;html=1;entryX=0.5;entryY=1;entryDx=0;entryDy=0;endArrow=block;endFill=0;fontSize=10;" edge="1" parent="1" source="oxYaIQUSxSvhRcsw_TUC-44" target="oxYaIQUSxSvhRcsw_TUC-46">
          <mxGeometry relative="1" as="geometry">
            <Array as="points">
              <mxPoint x="480" y="500"/>
              <mxPoint x="550" y="500"/>
            </Array>
          </mxGeometry>
        </mxCell>
        <mxCell id="oxYaIQUSxSvhRcsw_TUC-44" value="ProductA1" style="swimlane;fontStyle=1;align=center;verticalAlign=top;childLayout=stackLayout;horizontal=1;startSize=26;horizontalStack=0;resizeParent=1;resizeParentMax=0;resizeLast=0;collapsible=1;marginBottom=0;strokeColor=#000000;fontSize=10;" vertex="1" parent="1">
          <mxGeometry x="430" y="510" width="100" height="34" as="geometry"/>
        </mxCell>
        <mxCell id="oxYaIQUSxSvhRcsw_TUC-45" value="" style="line;strokeWidth=1;fillColor=none;align=left;verticalAlign=middle;spacingTop=-1;spacingLeft=3;spacingRight=3;rotatable=0;labelPosition=right;points=[];portConstraint=eastwest;" vertex="1" parent="oxYaIQUSxSvhRcsw_TUC-44">
          <mxGeometry y="26" width="100" height="8" as="geometry"/>
        </mxCell>
        <mxCell id="oxYaIQUSxSvhRcsw_TUC-46" value="AbstractProductA" style="swimlane;fontStyle=1;align=center;verticalAlign=top;childLayout=stackLayout;horizontal=1;startSize=26;horizontalStack=0;resizeParent=1;resizeParentMax=0;resizeLast=0;collapsible=1;marginBottom=0;strokeColor=#000000;fontSize=10;" vertex="1" parent="1">
          <mxGeometry x="500" y="450" width="100" height="34" as="geometry"/>
        </mxCell>
        <mxCell id="oxYaIQUSxSvhRcsw_TUC-47" value="" style="line;strokeWidth=1;fillColor=none;align=left;verticalAlign=middle;spacingTop=-1;spacingLeft=3;spacingRight=3;rotatable=0;labelPosition=right;points=[];portConstraint=eastwest;" vertex="1" parent="oxYaIQUSxSvhRcsw_TUC-46">
          <mxGeometry y="26" width="100" height="8" as="geometry"/>
        </mxCell>
        <mxCell id="oxYaIQUSxSvhRcsw_TUC-73" style="edgeStyle=orthogonalEdgeStyle;rounded=0;orthogonalLoop=1;jettySize=auto;html=1;entryX=0.5;entryY=1;entryDx=0;entryDy=0;endArrow=block;endFill=0;fontSize=10;" edge="1" parent="1" source="oxYaIQUSxSvhRcsw_TUC-48" target="oxYaIQUSxSvhRcsw_TUC-46">
          <mxGeometry relative="1" as="geometry">
            <Array as="points">
              <mxPoint x="620" y="500"/>
              <mxPoint x="550" y="500"/>
            </Array>
          </mxGeometry>
        </mxCell>
        <mxCell id="oxYaIQUSxSvhRcsw_TUC-48" value="ProductA2" style="swimlane;fontStyle=1;align=center;verticalAlign=top;childLayout=stackLayout;horizontal=1;startSize=26;horizontalStack=0;resizeParent=1;resizeParentMax=0;resizeLast=0;collapsible=1;marginBottom=0;strokeColor=#000000;fontSize=10;" vertex="1" parent="1">
          <mxGeometry x="570" y="510" width="100" height="34" as="geometry"/>
        </mxCell>
        <mxCell id="oxYaIQUSxSvhRcsw_TUC-49" value="" style="line;strokeWidth=1;fillColor=none;align=left;verticalAlign=middle;spacingTop=-1;spacingLeft=3;spacingRight=3;rotatable=0;labelPosition=right;points=[];portConstraint=eastwest;" vertex="1" parent="oxYaIQUSxSvhRcsw_TUC-48">
          <mxGeometry y="26" width="100" height="8" as="geometry"/>
        </mxCell>
        <mxCell id="oxYaIQUSxSvhRcsw_TUC-74" style="edgeStyle=orthogonalEdgeStyle;rounded=0;orthogonalLoop=1;jettySize=auto;html=1;entryX=0.5;entryY=1;entryDx=0;entryDy=0;endArrow=block;endFill=0;fontSize=10;" edge="1" parent="1" source="oxYaIQUSxSvhRcsw_TUC-53" target="oxYaIQUSxSvhRcsw_TUC-55">
          <mxGeometry relative="1" as="geometry">
            <Array as="points">
              <mxPoint x="480" y="650"/>
              <mxPoint x="550" y="650"/>
            </Array>
          </mxGeometry>
        </mxCell>
        <mxCell id="oxYaIQUSxSvhRcsw_TUC-53" value="ProductB1" style="swimlane;fontStyle=1;align=center;verticalAlign=top;childLayout=stackLayout;horizontal=1;startSize=26;horizontalStack=0;resizeParent=1;resizeParentMax=0;resizeLast=0;collapsible=1;marginBottom=0;strokeColor=#000000;fontSize=10;" vertex="1" parent="1">
          <mxGeometry x="430" y="662" width="100" height="34" as="geometry"/>
        </mxCell>
        <mxCell id="oxYaIQUSxSvhRcsw_TUC-54" value="" style="line;strokeWidth=1;fillColor=none;align=left;verticalAlign=middle;spacingTop=-1;spacingLeft=3;spacingRight=3;rotatable=0;labelPosition=right;points=[];portConstraint=eastwest;" vertex="1" parent="oxYaIQUSxSvhRcsw_TUC-53">
          <mxGeometry y="26" width="100" height="8" as="geometry"/>
        </mxCell>
        <mxCell id="oxYaIQUSxSvhRcsw_TUC-55" value="AbstractProductB" style="swimlane;fontStyle=1;align=center;verticalAlign=top;childLayout=stackLayout;horizontal=1;startSize=26;horizontalStack=0;resizeParent=1;resizeParentMax=0;resizeLast=0;collapsible=1;marginBottom=0;strokeColor=#000000;fontSize=10;" vertex="1" parent="1">
          <mxGeometry x="500" y="600" width="100" height="34" as="geometry"/>
        </mxCell>
        <mxCell id="oxYaIQUSxSvhRcsw_TUC-56" value="" style="line;strokeWidth=1;fillColor=none;align=left;verticalAlign=middle;spacingTop=-1;spacingLeft=3;spacingRight=3;rotatable=0;labelPosition=right;points=[];portConstraint=eastwest;" vertex="1" parent="oxYaIQUSxSvhRcsw_TUC-55">
          <mxGeometry y="26" width="100" height="8" as="geometry"/>
        </mxCell>
        <mxCell id="oxYaIQUSxSvhRcsw_TUC-75" style="edgeStyle=orthogonalEdgeStyle;rounded=0;orthogonalLoop=1;jettySize=auto;html=1;endArrow=block;endFill=0;fontSize=10;" edge="1" parent="1" source="oxYaIQUSxSvhRcsw_TUC-58" target="oxYaIQUSxSvhRcsw_TUC-55">
          <mxGeometry relative="1" as="geometry">
            <Array as="points">
              <mxPoint x="620" y="650"/>
              <mxPoint x="550" y="650"/>
            </Array>
          </mxGeometry>
        </mxCell>
        <mxCell id="oxYaIQUSxSvhRcsw_TUC-58" value="ProductB2" style="swimlane;fontStyle=1;align=center;verticalAlign=top;childLayout=stackLayout;horizontal=1;startSize=26;horizontalStack=0;resizeParent=1;resizeParentMax=0;resizeLast=0;collapsible=1;marginBottom=0;strokeColor=#000000;fontSize=10;" vertex="1" parent="1">
          <mxGeometry x="570" y="662" width="100" height="34" as="geometry"/>
        </mxCell>
        <mxCell id="oxYaIQUSxSvhRcsw_TUC-59" value="" style="line;strokeWidth=1;fillColor=none;align=left;verticalAlign=middle;spacingTop=-1;spacingLeft=3;spacingRight=3;rotatable=0;labelPosition=right;points=[];portConstraint=eastwest;" vertex="1" parent="oxYaIQUSxSvhRcsw_TUC-58">
          <mxGeometry y="26" width="100" height="8" as="geometry"/>
        </mxCell>
        <mxCell id="oxYaIQUSxSvhRcsw_TUC-69" style="edgeStyle=orthogonalEdgeStyle;rounded=0;orthogonalLoop=1;jettySize=auto;html=1;endArrow=block;endFill=0;fontSize=10;" edge="1" parent="1" source="oxYaIQUSxSvhRcsw_TUC-60" target="oxYaIQUSxSvhRcsw_TUC-38">
          <mxGeometry relative="1" as="geometry"/>
        </mxCell>
        <mxCell id="oxYaIQUSxSvhRcsw_TUC-60" value="ConcreteFactory1" style="swimlane;fontStyle=1;align=center;verticalAlign=top;childLayout=stackLayout;horizontal=1;startSize=26;horizontalStack=0;resizeParent=1;resizeParentMax=0;resizeLast=0;collapsible=1;marginBottom=0;strokeColor=#000000;fontSize=10;" vertex="1" parent="1">
          <mxGeometry x="220" y="500" width="160" height="86" as="geometry"/>
        </mxCell>
        <mxCell id="oxYaIQUSxSvhRcsw_TUC-61" value="" style="line;strokeWidth=1;fillColor=none;align=left;verticalAlign=middle;spacingTop=-1;spacingLeft=3;spacingRight=3;rotatable=0;labelPosition=right;points=[];portConstraint=eastwest;" vertex="1" parent="oxYaIQUSxSvhRcsw_TUC-60">
          <mxGeometry y="26" width="160" height="8" as="geometry"/>
        </mxCell>
        <mxCell id="oxYaIQUSxSvhRcsw_TUC-62" value="+ CreateProductA()" style="text;strokeColor=none;fillColor=none;align=left;verticalAlign=top;spacingLeft=4;spacingRight=4;overflow=hidden;rotatable=0;points=[[0,0.5],[1,0.5]];portConstraint=eastwest;" vertex="1" parent="oxYaIQUSxSvhRcsw_TUC-60">
          <mxGeometry y="34" width="160" height="26" as="geometry"/>
        </mxCell>
        <mxCell id="oxYaIQUSxSvhRcsw_TUC-63" value="+ CreateProductB()" style="text;strokeColor=none;fillColor=none;align=left;verticalAlign=top;spacingLeft=4;spacingRight=4;overflow=hidden;rotatable=0;points=[[0,0.5],[1,0.5]];portConstraint=eastwest;" vertex="1" parent="oxYaIQUSxSvhRcsw_TUC-60">
          <mxGeometry y="60" width="160" height="26" as="geometry"/>
        </mxCell>
        <mxCell id="oxYaIQUSxSvhRcsw_TUC-70" style="edgeStyle=orthogonalEdgeStyle;rounded=0;orthogonalLoop=1;jettySize=auto;html=1;endArrow=block;endFill=0;fontSize=10;" edge="1" parent="1" source="oxYaIQUSxSvhRcsw_TUC-64" target="oxYaIQUSxSvhRcsw_TUC-38">
          <mxGeometry relative="1" as="geometry"/>
        </mxCell>
        <mxCell id="oxYaIQUSxSvhRcsw_TUC-64" value="ConcreteFactory2" style="swimlane;fontStyle=1;align=center;verticalAlign=top;childLayout=stackLayout;horizontal=1;startSize=26;horizontalStack=0;resizeParent=1;resizeParentMax=0;resizeLast=0;collapsible=1;marginBottom=0;strokeColor=#000000;fontSize=10;" vertex="1" parent="1">
          <mxGeometry x="220" y="610" width="160" height="86" as="geometry"/>
        </mxCell>
        <mxCell id="oxYaIQUSxSvhRcsw_TUC-65" value="" style="line;strokeWidth=1;fillColor=none;align=left;verticalAlign=middle;spacingTop=-1;spacingLeft=3;spacingRight=3;rotatable=0;labelPosition=right;points=[];portConstraint=eastwest;" vertex="1" parent="oxYaIQUSxSvhRcsw_TUC-64">
          <mxGeometry y="26" width="160" height="8" as="geometry"/>
        </mxCell>
        <mxCell id="oxYaIQUSxSvhRcsw_TUC-66" value="+ CreateProductA()" style="text;strokeColor=none;fillColor=none;align=left;verticalAlign=top;spacingLeft=4;spacingRight=4;overflow=hidden;rotatable=0;points=[[0,0.5],[1,0.5]];portConstraint=eastwest;" vertex="1" parent="oxYaIQUSxSvhRcsw_TUC-64">
          <mxGeometry y="34" width="160" height="26" as="geometry"/>
        </mxCell>
        <mxCell id="oxYaIQUSxSvhRcsw_TUC-67" value="+ CreateProductB()" style="text;strokeColor=none;fillColor=none;align=left;verticalAlign=top;spacingLeft=4;spacingRight=4;overflow=hidden;rotatable=0;points=[[0,0.5],[1,0.5]];portConstraint=eastwest;" vertex="1" parent="oxYaIQUSxSvhRcsw_TUC-64">
          <mxGeometry y="60" width="160" height="26" as="geometry"/>
        </mxCell>
        <mxCell id="oxYaIQUSxSvhRcsw_TUC-77" style="edgeStyle=orthogonalEdgeStyle;rounded=0;orthogonalLoop=1;jettySize=auto;html=1;endArrow=classic;endFill=1;fontSize=10;dashed=1;" edge="1" parent="1" source="oxYaIQUSxSvhRcsw_TUC-62" target="oxYaIQUSxSvhRcsw_TUC-44">
          <mxGeometry relative="1" as="geometry">
            <Array as="points">
              <mxPoint x="400" y="547"/>
              <mxPoint x="400" y="527"/>
            </Array>
          </mxGeometry>
        </mxCell>
        <mxCell id="oxYaIQUSxSvhRcsw_TUC-79" style="edgeStyle=orthogonalEdgeStyle;rounded=0;orthogonalLoop=1;jettySize=auto;html=1;dashed=1;endArrow=classic;endFill=1;fontSize=10;" edge="1" parent="1" source="oxYaIQUSxSvhRcsw_TUC-63" target="oxYaIQUSxSvhRcsw_TUC-53">
          <mxGeometry relative="1" as="geometry">
            <Array as="points">
              <mxPoint x="400" y="573"/>
              <mxPoint x="400" y="679"/>
            </Array>
          </mxGeometry>
        </mxCell>
        <mxCell id="oxYaIQUSxSvhRcsw_TUC-80" style="edgeStyle=orthogonalEdgeStyle;rounded=0;orthogonalLoop=1;jettySize=auto;html=1;dashed=1;endArrow=classic;endFill=1;fontSize=10;" edge="1" parent="1" source="oxYaIQUSxSvhRcsw_TUC-66" target="oxYaIQUSxSvhRcsw_TUC-48">
          <mxGeometry relative="1" as="geometry">
            <Array as="points">
              <mxPoint x="390" y="657"/>
              <mxPoint x="390" y="580"/>
              <mxPoint x="620" y="580"/>
            </Array>
          </mxGeometry>
        </mxCell>
        <mxCell id="oxYaIQUSxSvhRcsw_TUC-81" style="edgeStyle=orthogonalEdgeStyle;rounded=0;orthogonalLoop=1;jettySize=auto;html=1;dashed=1;endArrow=classic;endFill=1;fontSize=10;" edge="1" parent="1" source="oxYaIQUSxSvhRcsw_TUC-67" target="oxYaIQUSxSvhRcsw_TUC-58">
          <mxGeometry relative="1" as="geometry">
            <Array as="points">
              <mxPoint x="300" y="710"/>
              <mxPoint x="620" y="710"/>
            </Array>
          </mxGeometry>
        </mxCell>
        <mxCell id="oxYaIQUSxSvhRcsw_TUC-82" value="Abstract Factory Pattern&#xa;提供一个接口，用于创建相关或者依赖对象的家族，而不需要指定具体的实现类。" style="text;align=left;fontStyle=1;verticalAlign=middle;spacingLeft=3;spacingRight=3;strokeColor=none;rotatable=0;points=[[0,0.5],[1,0.5]];portConstraint=eastwest;fontSize=10;" vertex="1" parent="1">
          <mxGeometry x="20" y="410" width="80" height="26" as="geometry"/>
        </mxCell>
        <mxCell id="oxYaIQUSxSvhRcsw_TUC-87" value="Builder" style="swimlane;fontStyle=1;align=center;verticalAlign=top;childLayout=stackLayout;horizontal=1;startSize=26;horizontalStack=0;resizeParent=1;resizeParentMax=0;resizeLast=0;collapsible=1;marginBottom=0;strokeColor=#000000;fontSize=10;" vertex="1" parent="1">
          <mxGeometry x="250" y="810" width="160" height="60" as="geometry"/>
        </mxCell>
        <mxCell id="oxYaIQUSxSvhRcsw_TUC-88" value="" style="line;strokeWidth=1;fillColor=none;align=left;verticalAlign=middle;spacingTop=-1;spacingLeft=3;spacingRight=3;rotatable=0;labelPosition=right;points=[];portConstraint=eastwest;" vertex="1" parent="oxYaIQUSxSvhRcsw_TUC-87">
          <mxGeometry y="26" width="160" height="8" as="geometry"/>
        </mxCell>
        <mxCell id="oxYaIQUSxSvhRcsw_TUC-89" value="+ BuildPart()" style="text;strokeColor=none;fillColor=none;align=left;verticalAlign=top;spacingLeft=4;spacingRight=4;overflow=hidden;rotatable=0;points=[[0,0.5],[1,0.5]];portConstraint=eastwest;" vertex="1" parent="oxYaIQUSxSvhRcsw_TUC-87">
          <mxGeometry y="34" width="160" height="26" as="geometry"/>
        </mxCell>
        <mxCell id="oxYaIQUSxSvhRcsw_TUC-106" style="edgeStyle=orthogonalEdgeStyle;rounded=0;orthogonalLoop=1;jettySize=auto;html=1;endArrow=classic;endFill=1;fontSize=10;startArrow=diamondThin;startFill=0;" edge="1" parent="1" source="oxYaIQUSxSvhRcsw_TUC-91" target="oxYaIQUSxSvhRcsw_TUC-87">
          <mxGeometry relative="1" as="geometry"/>
        </mxCell>
        <mxCell id="oxYaIQUSxSvhRcsw_TUC-91" value="Director" style="swimlane;fontStyle=1;align=center;verticalAlign=top;childLayout=stackLayout;horizontal=1;startSize=26;horizontalStack=0;resizeParent=1;resizeParentMax=0;resizeLast=0;collapsible=1;marginBottom=0;strokeColor=#000000;fontSize=10;" vertex="1" parent="1">
          <mxGeometry x="30" y="810" width="160" height="60" as="geometry"/>
        </mxCell>
        <mxCell id="oxYaIQUSxSvhRcsw_TUC-92" value="" style="line;strokeWidth=1;fillColor=none;align=left;verticalAlign=middle;spacingTop=-1;spacingLeft=3;spacingRight=3;rotatable=0;labelPosition=right;points=[];portConstraint=eastwest;" vertex="1" parent="oxYaIQUSxSvhRcsw_TUC-91">
          <mxGeometry y="26" width="160" height="8" as="geometry"/>
        </mxCell>
        <mxCell id="oxYaIQUSxSvhRcsw_TUC-93" value="+ Construct()" style="text;strokeColor=none;fillColor=none;align=left;verticalAlign=top;spacingLeft=4;spacingRight=4;overflow=hidden;rotatable=0;points=[[0,0.5],[1,0.5]];portConstraint=eastwest;" vertex="1" parent="oxYaIQUSxSvhRcsw_TUC-91">
          <mxGeometry y="34" width="160" height="26" as="geometry"/>
        </mxCell>
        <mxCell id="oxYaIQUSxSvhRcsw_TUC-102" style="edgeStyle=orthogonalEdgeStyle;rounded=0;orthogonalLoop=1;jettySize=auto;html=1;dashed=1;endArrow=classic;endFill=1;fontSize=10;" edge="1" parent="1" source="oxYaIQUSxSvhRcsw_TUC-94" target="oxYaIQUSxSvhRcsw_TUC-100">
          <mxGeometry relative="1" as="geometry"/>
        </mxCell>
        <mxCell id="oxYaIQUSxSvhRcsw_TUC-105" style="edgeStyle=orthogonalEdgeStyle;rounded=0;orthogonalLoop=1;jettySize=auto;html=1;endArrow=block;endFill=0;fontSize=10;" edge="1" parent="1" source="oxYaIQUSxSvhRcsw_TUC-94" target="oxYaIQUSxSvhRcsw_TUC-87">
          <mxGeometry relative="1" as="geometry"/>
        </mxCell>
        <mxCell id="oxYaIQUSxSvhRcsw_TUC-94" value="ConcreteBuilder" style="swimlane;fontStyle=1;align=center;verticalAlign=top;childLayout=stackLayout;horizontal=1;startSize=26;horizontalStack=0;resizeParent=1;resizeParentMax=0;resizeLast=0;collapsible=1;marginBottom=0;strokeColor=#000000;fontSize=10;" vertex="1" parent="1">
          <mxGeometry x="250" y="890" width="160" height="86" as="geometry"/>
        </mxCell>
        <mxCell id="oxYaIQUSxSvhRcsw_TUC-95" value="" style="line;strokeWidth=1;fillColor=none;align=left;verticalAlign=middle;spacingTop=-1;spacingLeft=3;spacingRight=3;rotatable=0;labelPosition=right;points=[];portConstraint=eastwest;" vertex="1" parent="oxYaIQUSxSvhRcsw_TUC-94">
          <mxGeometry y="26" width="160" height="8" as="geometry"/>
        </mxCell>
        <mxCell id="oxYaIQUSxSvhRcsw_TUC-96" value="+ BuildPart()" style="text;strokeColor=none;fillColor=none;align=left;verticalAlign=top;spacingLeft=4;spacingRight=4;overflow=hidden;rotatable=0;points=[[0,0.5],[1,0.5]];portConstraint=eastwest;" vertex="1" parent="oxYaIQUSxSvhRcsw_TUC-94">
          <mxGeometry y="34" width="160" height="26" as="geometry"/>
        </mxCell>
        <mxCell id="oxYaIQUSxSvhRcsw_TUC-103" value="+ GetResult()" style="text;strokeColor=none;fillColor=none;align=left;verticalAlign=top;spacingLeft=4;spacingRight=4;overflow=hidden;rotatable=0;points=[[0,0.5],[1,0.5]];portConstraint=eastwest;" vertex="1" parent="oxYaIQUSxSvhRcsw_TUC-94">
          <mxGeometry y="60" width="160" height="26" as="geometry"/>
        </mxCell>
        <mxCell id="oxYaIQUSxSvhRcsw_TUC-100" value="Product" style="swimlane;fontStyle=1;align=center;verticalAlign=top;childLayout=stackLayout;horizontal=1;startSize=26;horizontalStack=0;resizeParent=1;resizeParentMax=0;resizeLast=0;collapsible=1;marginBottom=0;strokeColor=#000000;fontSize=10;" vertex="1" parent="1">
          <mxGeometry x="460" y="916" width="100" height="34" as="geometry"/>
        </mxCell>
        <mxCell id="oxYaIQUSxSvhRcsw_TUC-101" value="" style="line;strokeWidth=1;fillColor=none;align=left;verticalAlign=middle;spacingTop=-1;spacingLeft=3;spacingRight=3;rotatable=0;labelPosition=right;points=[];portConstraint=eastwest;" vertex="1" parent="oxYaIQUSxSvhRcsw_TUC-100">
          <mxGeometry y="26" width="100" height="8" as="geometry"/>
        </mxCell>
        <mxCell id="oxYaIQUSxSvhRcsw_TUC-107" value="+builder" style="text;align=center;fontStyle=1;verticalAlign=middle;spacingLeft=3;spacingRight=3;strokeColor=none;rotatable=0;points=[[0,0.5],[1,0.5]];portConstraint=eastwest;fontSize=10;" vertex="1" parent="1">
          <mxGeometry x="172" y="820" width="80" height="26" as="geometry"/>
        </mxCell>
        <mxCell id="oxYaIQUSxSvhRcsw_TUC-108" value="Prototype Pattern&#xa;用原型实例指定创建对象的种类，并且通过拷贝这些原型创建新的对象。" style="text;align=left;fontStyle=1;verticalAlign=middle;spacingLeft=3;spacingRight=3;strokeColor=none;rotatable=0;points=[[0,0.5],[1,0.5]];portConstraint=eastwest;fontSize=10;" vertex="1" parent="1">
          <mxGeometry x="20" y="1020" width="80" height="26" as="geometry"/>
        </mxCell>
        <mxCell id="oxYaIQUSxSvhRcsw_TUC-126" style="edgeStyle=orthogonalEdgeStyle;rounded=0;orthogonalLoop=1;jettySize=auto;html=1;startArrow=none;startFill=0;endArrow=classic;endFill=1;fontSize=10;" edge="1" parent="1" source="oxYaIQUSxSvhRcsw_TUC-113" target="oxYaIQUSxSvhRcsw_TUC-115">
          <mxGeometry relative="1" as="geometry"/>
        </mxCell>
        <mxCell id="oxYaIQUSxSvhRcsw_TUC-113" value="Client" style="swimlane;fontStyle=1;align=center;verticalAlign=top;childLayout=stackLayout;horizontal=1;startSize=26;horizontalStack=0;resizeParent=1;resizeParentMax=0;resizeLast=0;collapsible=1;marginBottom=0;strokeColor=#000000;fontSize=10;" vertex="1" parent="1">
          <mxGeometry x="30" y="1073" width="160" height="34" as="geometry"/>
        </mxCell>
        <mxCell id="oxYaIQUSxSvhRcsw_TUC-114" value="" style="line;strokeWidth=1;fillColor=none;align=left;verticalAlign=middle;spacingTop=-1;spacingLeft=3;spacingRight=3;rotatable=0;labelPosition=right;points=[];portConstraint=eastwest;" vertex="1" parent="oxYaIQUSxSvhRcsw_TUC-113">
          <mxGeometry y="26" width="160" height="8" as="geometry"/>
        </mxCell>
        <mxCell id="oxYaIQUSxSvhRcsw_TUC-115" value="Prototype" style="swimlane;fontStyle=1;align=center;verticalAlign=top;childLayout=stackLayout;horizontal=1;startSize=26;horizontalStack=0;resizeParent=1;resizeParentMax=0;resizeLast=0;collapsible=1;marginBottom=0;strokeColor=#000000;fontSize=10;" vertex="1" parent="1">
          <mxGeometry x="250" y="1060" width="160" height="60" as="geometry"/>
        </mxCell>
        <mxCell id="oxYaIQUSxSvhRcsw_TUC-116" value="" style="line;strokeWidth=1;fillColor=none;align=left;verticalAlign=middle;spacingTop=-1;spacingLeft=3;spacingRight=3;rotatable=0;labelPosition=right;points=[];portConstraint=eastwest;" vertex="1" parent="oxYaIQUSxSvhRcsw_TUC-115">
          <mxGeometry y="26" width="160" height="8" as="geometry"/>
        </mxCell>
        <mxCell id="oxYaIQUSxSvhRcsw_TUC-117" value="+ Clone()" style="text;strokeColor=none;fillColor=none;align=left;verticalAlign=top;spacingLeft=4;spacingRight=4;overflow=hidden;rotatable=0;points=[[0,0.5],[1,0.5]];portConstraint=eastwest;" vertex="1" parent="oxYaIQUSxSvhRcsw_TUC-115">
          <mxGeometry y="34" width="160" height="26" as="geometry"/>
        </mxCell>
        <mxCell id="oxYaIQUSxSvhRcsw_TUC-124" style="edgeStyle=orthogonalEdgeStyle;rounded=0;orthogonalLoop=1;jettySize=auto;html=1;startArrow=none;startFill=0;endArrow=block;endFill=0;fontSize=10;" edge="1" parent="1" source="oxYaIQUSxSvhRcsw_TUC-118" target="oxYaIQUSxSvhRcsw_TUC-115">
          <mxGeometry relative="1" as="geometry">
            <Array as="points">
              <mxPoint x="212" y="1140"/>
              <mxPoint x="330" y="1140"/>
            </Array>
          </mxGeometry>
        </mxCell>
        <mxCell id="oxYaIQUSxSvhRcsw_TUC-118" value="ConcretePrototype1" style="swimlane;fontStyle=1;align=center;verticalAlign=top;childLayout=stackLayout;horizontal=1;startSize=26;horizontalStack=0;resizeParent=1;resizeParentMax=0;resizeLast=0;collapsible=1;marginBottom=0;strokeColor=#000000;fontSize=10;" vertex="1" parent="1">
          <mxGeometry x="132" y="1150" width="160" height="60" as="geometry"/>
        </mxCell>
        <mxCell id="oxYaIQUSxSvhRcsw_TUC-119" value="" style="line;strokeWidth=1;fillColor=none;align=left;verticalAlign=middle;spacingTop=-1;spacingLeft=3;spacingRight=3;rotatable=0;labelPosition=right;points=[];portConstraint=eastwest;" vertex="1" parent="oxYaIQUSxSvhRcsw_TUC-118">
          <mxGeometry y="26" width="160" height="8" as="geometry"/>
        </mxCell>
        <mxCell id="oxYaIQUSxSvhRcsw_TUC-120" value="+ Clone()" style="text;strokeColor=none;fillColor=none;align=left;verticalAlign=top;spacingLeft=4;spacingRight=4;overflow=hidden;rotatable=0;points=[[0,0.5],[1,0.5]];portConstraint=eastwest;" vertex="1" parent="oxYaIQUSxSvhRcsw_TUC-118">
          <mxGeometry y="34" width="160" height="26" as="geometry"/>
        </mxCell>
        <mxCell id="oxYaIQUSxSvhRcsw_TUC-125" style="edgeStyle=orthogonalEdgeStyle;rounded=0;orthogonalLoop=1;jettySize=auto;html=1;startArrow=none;startFill=0;endArrow=block;endFill=0;fontSize=10;" edge="1" parent="1" source="oxYaIQUSxSvhRcsw_TUC-121" target="oxYaIQUSxSvhRcsw_TUC-115">
          <mxGeometry relative="1" as="geometry">
            <Array as="points">
              <mxPoint x="440" y="1140"/>
              <mxPoint x="330" y="1140"/>
            </Array>
          </mxGeometry>
        </mxCell>
        <mxCell id="oxYaIQUSxSvhRcsw_TUC-121" value="ConcretePrototype2" style="swimlane;fontStyle=1;align=center;verticalAlign=top;childLayout=stackLayout;horizontal=1;startSize=26;horizontalStack=0;resizeParent=1;resizeParentMax=0;resizeLast=0;collapsible=1;marginBottom=0;strokeColor=#000000;fontSize=10;" vertex="1" parent="1">
          <mxGeometry x="360" y="1150" width="160" height="60" as="geometry"/>
        </mxCell>
        <mxCell id="oxYaIQUSxSvhRcsw_TUC-122" value="" style="line;strokeWidth=1;fillColor=none;align=left;verticalAlign=middle;spacingTop=-1;spacingLeft=3;spacingRight=3;rotatable=0;labelPosition=right;points=[];portConstraint=eastwest;" vertex="1" parent="oxYaIQUSxSvhRcsw_TUC-121">
          <mxGeometry y="26" width="160" height="8" as="geometry"/>
        </mxCell>
        <mxCell id="oxYaIQUSxSvhRcsw_TUC-123" value="+ Clone()" style="text;strokeColor=none;fillColor=none;align=left;verticalAlign=top;spacingLeft=4;spacingRight=4;overflow=hidden;rotatable=0;points=[[0,0.5],[1,0.5]];portConstraint=eastwest;" vertex="1" parent="oxYaIQUSxSvhRcsw_TUC-121">
          <mxGeometry y="34" width="160" height="26" as="geometry"/>
        </mxCell>
        <mxCell id="oxYaIQUSxSvhRcsw_TUC-127" value="+prototype" style="text;align=center;fontStyle=1;verticalAlign=middle;spacingLeft=3;spacingRight=3;strokeColor=none;rotatable=0;points=[[0,0.5],[1,0.5]];portConstraint=eastwest;fontSize=10;" vertex="1" parent="1">
          <mxGeometry x="178" y="1070" width="80" height="26" as="geometry"/>
        </mxCell>
        <mxCell id="oxYaIQUSxSvhRcsw_TUC-128" value="Iterator Pattern&#xa;提供一种方法访问一个容器对象中各个元素，而又不需暴露该对象的内部细节。" style="text;align=left;fontStyle=1;verticalAlign=middle;spacingLeft=3;spacingRight=3;strokeColor=none;rotatable=0;points=[[0,0.5],[1,0.5]];portConstraint=eastwest;fontSize=10;" vertex="1" parent="1">
          <mxGeometry x="20" y="1250" width="80" height="26" as="geometry"/>
        </mxCell>
        <mxCell id="oxYaIQUSxSvhRcsw_TUC-129" value="Iterator" style="swimlane;fontStyle=1;align=center;verticalAlign=top;childLayout=stackLayout;horizontal=1;startSize=26;horizontalStack=0;resizeParent=1;resizeParentMax=0;resizeLast=0;collapsible=1;marginBottom=0;strokeColor=#000000;fontSize=10;" vertex="1" parent="1">
          <mxGeometry x="340" y="1300" width="160" height="138" as="geometry"/>
        </mxCell>
        <mxCell id="oxYaIQUSxSvhRcsw_TUC-130" value="" style="line;strokeWidth=1;fillColor=none;align=left;verticalAlign=middle;spacingTop=-1;spacingLeft=3;spacingRight=3;rotatable=0;labelPosition=right;points=[];portConstraint=eastwest;" vertex="1" parent="oxYaIQUSxSvhRcsw_TUC-129">
          <mxGeometry y="26" width="160" height="8" as="geometry"/>
        </mxCell>
        <mxCell id="oxYaIQUSxSvhRcsw_TUC-135" value="+ First()" style="text;strokeColor=none;fillColor=none;align=left;verticalAlign=top;spacingLeft=4;spacingRight=4;overflow=hidden;rotatable=0;points=[[0,0.5],[1,0.5]];portConstraint=eastwest;" vertex="1" parent="oxYaIQUSxSvhRcsw_TUC-129">
          <mxGeometry y="34" width="160" height="26" as="geometry"/>
        </mxCell>
        <mxCell id="oxYaIQUSxSvhRcsw_TUC-136" value="+ Next()" style="text;strokeColor=none;fillColor=none;align=left;verticalAlign=top;spacingLeft=4;spacingRight=4;overflow=hidden;rotatable=0;points=[[0,0.5],[1,0.5]];portConstraint=eastwest;" vertex="1" parent="oxYaIQUSxSvhRcsw_TUC-129">
          <mxGeometry y="60" width="160" height="26" as="geometry"/>
        </mxCell>
        <mxCell id="oxYaIQUSxSvhRcsw_TUC-137" value="+ IsDone()" style="text;strokeColor=none;fillColor=none;align=left;verticalAlign=top;spacingLeft=4;spacingRight=4;overflow=hidden;rotatable=0;points=[[0,0.5],[1,0.5]];portConstraint=eastwest;" vertex="1" parent="oxYaIQUSxSvhRcsw_TUC-129">
          <mxGeometry y="86" width="160" height="26" as="geometry"/>
        </mxCell>
        <mxCell id="oxYaIQUSxSvhRcsw_TUC-131" value="+ CurrentItem()" style="text;strokeColor=none;fillColor=none;align=left;verticalAlign=top;spacingLeft=4;spacingRight=4;overflow=hidden;rotatable=0;points=[[0,0.5],[1,0.5]];portConstraint=eastwest;" vertex="1" parent="oxYaIQUSxSvhRcsw_TUC-129">
          <mxGeometry y="112" width="160" height="26" as="geometry"/>
        </mxCell>
        <mxCell id="oxYaIQUSxSvhRcsw_TUC-132" value="Aggregate" style="swimlane;fontStyle=1;align=center;verticalAlign=top;childLayout=stackLayout;horizontal=1;startSize=26;horizontalStack=0;resizeParent=1;resizeParentMax=0;resizeLast=0;collapsible=1;marginBottom=0;strokeColor=#000000;fontSize=10;" vertex="1" parent="1">
          <mxGeometry x="40" y="1300" width="160" height="60" as="geometry"/>
        </mxCell>
        <mxCell id="oxYaIQUSxSvhRcsw_TUC-133" value="" style="line;strokeWidth=1;fillColor=none;align=left;verticalAlign=middle;spacingTop=-1;spacingLeft=3;spacingRight=3;rotatable=0;labelPosition=right;points=[];portConstraint=eastwest;" vertex="1" parent="oxYaIQUSxSvhRcsw_TUC-132">
          <mxGeometry y="26" width="160" height="8" as="geometry"/>
        </mxCell>
        <mxCell id="oxYaIQUSxSvhRcsw_TUC-134" value="+ CreateIterator()" style="text;strokeColor=none;fillColor=none;align=left;verticalAlign=top;spacingLeft=4;spacingRight=4;overflow=hidden;rotatable=0;points=[[0,0.5],[1,0.5]];portConstraint=eastwest;" vertex="1" parent="oxYaIQUSxSvhRcsw_TUC-132">
          <mxGeometry y="34" width="160" height="26" as="geometry"/>
        </mxCell>
        <mxCell id="oxYaIQUSxSvhRcsw_TUC-144" style="edgeStyle=orthogonalEdgeStyle;rounded=0;orthogonalLoop=1;jettySize=auto;html=1;startArrow=none;startFill=0;endArrow=classic;endFill=1;fontSize=10;dashed=1;" edge="1" parent="1" source="oxYaIQUSxSvhRcsw_TUC-138" target="oxYaIQUSxSvhRcsw_TUC-141">
          <mxGeometry relative="1" as="geometry"/>
        </mxCell>
        <mxCell id="oxYaIQUSxSvhRcsw_TUC-146" style="edgeStyle=orthogonalEdgeStyle;rounded=0;orthogonalLoop=1;jettySize=auto;html=1;startArrow=none;startFill=0;endArrow=block;endFill=0;fontSize=10;" edge="1" parent="1" source="oxYaIQUSxSvhRcsw_TUC-138" target="oxYaIQUSxSvhRcsw_TUC-132">
          <mxGeometry relative="1" as="geometry"/>
        </mxCell>
        <mxCell id="oxYaIQUSxSvhRcsw_TUC-138" value="ConcreteAggregate" style="swimlane;fontStyle=1;align=center;verticalAlign=top;childLayout=stackLayout;horizontal=1;startSize=26;horizontalStack=0;resizeParent=1;resizeParentMax=0;resizeLast=0;collapsible=1;marginBottom=0;strokeColor=#000000;fontSize=10;" vertex="1" parent="1">
          <mxGeometry x="40" y="1460" width="160" height="34" as="geometry"/>
        </mxCell>
        <mxCell id="oxYaIQUSxSvhRcsw_TUC-139" value="" style="line;strokeWidth=1;fillColor=none;align=left;verticalAlign=middle;spacingTop=-1;spacingLeft=3;spacingRight=3;rotatable=0;labelPosition=right;points=[];portConstraint=eastwest;" vertex="1" parent="oxYaIQUSxSvhRcsw_TUC-138">
          <mxGeometry y="26" width="160" height="8" as="geometry"/>
        </mxCell>
        <mxCell id="oxYaIQUSxSvhRcsw_TUC-143" style="edgeStyle=orthogonalEdgeStyle;rounded=0;orthogonalLoop=1;jettySize=auto;html=1;entryX=1;entryY=0.75;entryDx=0;entryDy=0;startArrow=none;startFill=0;endArrow=classic;endFill=1;fontSize=10;" edge="1" parent="1" source="oxYaIQUSxSvhRcsw_TUC-141" target="oxYaIQUSxSvhRcsw_TUC-138">
          <mxGeometry relative="1" as="geometry">
            <Array as="points">
              <mxPoint x="280" y="1486"/>
              <mxPoint x="280" y="1486"/>
            </Array>
          </mxGeometry>
        </mxCell>
        <mxCell id="oxYaIQUSxSvhRcsw_TUC-147" style="edgeStyle=orthogonalEdgeStyle;rounded=0;orthogonalLoop=1;jettySize=auto;html=1;startArrow=none;startFill=0;endArrow=block;endFill=0;fontSize=10;" edge="1" parent="1" source="oxYaIQUSxSvhRcsw_TUC-141" target="oxYaIQUSxSvhRcsw_TUC-129">
          <mxGeometry relative="1" as="geometry"/>
        </mxCell>
        <mxCell id="oxYaIQUSxSvhRcsw_TUC-141" value="ConcreteIterator" style="swimlane;fontStyle=1;align=center;verticalAlign=top;childLayout=stackLayout;horizontal=1;startSize=26;horizontalStack=0;resizeParent=1;resizeParentMax=0;resizeLast=0;collapsible=1;marginBottom=0;strokeColor=#000000;fontSize=10;" vertex="1" parent="1">
          <mxGeometry x="340" y="1460" width="160" height="34" as="geometry"/>
        </mxCell>
        <mxCell id="oxYaIQUSxSvhRcsw_TUC-142" value="" style="line;strokeWidth=1;fillColor=none;align=left;verticalAlign=middle;spacingTop=-1;spacingLeft=3;spacingRight=3;rotatable=0;labelPosition=right;points=[];portConstraint=eastwest;" vertex="1" parent="oxYaIQUSxSvhRcsw_TUC-141">
          <mxGeometry y="26" width="160" height="8" as="geometry"/>
        </mxCell>
      </root>
    </mxGraphModel>
  </diagram>
</mxfile>
